<?xml version="1.0" encoding="utf-8"?>
<!-- Generator: Adobe Illustrator 18.1.1, SVG Export Plug-In . SVG Version: 6.00 Build 0)  -->
<svg version="1.1" id="Calque_1" xmlns="http://www.w3.org/2000/svg" xmlns:xlink="http://www.w3.org/1999/xlink" x="0px" y="0px"
	 viewBox="0 0 500 500" enable-background="new 0 0 500 500" xml:space="preserve">
<g>
	<path fill="#343434" d="M150,146.5c-3.8-9.4-14.1-16-30.2-19.8c-13.2-2.8-23.6,0-29.2,7.5c-5.7,6.6-7.5,17-6.6,29.2
		c0.9,11.3,2.8,23.6,7.5,34c3.8,11.3,8.5,17.9,13.2,20.8c4.7-1.9,11.3-6.6,19.8-14.1c9.4-9.4,16-17.9,20.8-28.3
		C151.9,164.4,152.8,155,150,146.5z"/>
	<path fill="#A5BB27" d="M201,88.3c-8.3-23.4-31-38.6-68-46.1c-31.8-6.8-53.7-1.5-68,16.6c-12.1,15.1-16.6,37.8-14.4,68
		c2.3,25.7,7.6,52.2,18.9,78.6c9.8,25.7,18.9,41.6,29.5,48.4c10.6-3,26.5-14.4,44.6-33.3c20.4-20.4,36.3-42.3,47.6-64.3
		C204,129.9,207.8,107.2,201,88.3z M123.1,198c-6.8,6-12.1,10.6-15.9,11.3c-3-2.3-6.8-7.6-10.6-16.6c-3.8-9.1-6-18.9-6-27.2
		c-0.8-10.6,0.8-18.9,5.3-23.4c4.5-6,12.9-8.3,23.4-6c12.9,3,21.2,8.3,24.2,15.9c2.3,6,1.5,14.4-3.8,23.4
		C136,183.6,130.7,190.4,123.1,198z"/>
	<path fill="#343434" d="M305.3,202.5c-9.9-10.9-19.9-14.9-30.8-12.9c-7.9,3-16.9,8.9-24.8,20.9c-6,9.9-10.9,20.9-13.9,34.8
		c-3,11.9-4,19.9-3,25.8c5,2,13.9,2,25.8,0c13.9-2,24.8-6,35.8-10.9c12.9-6,19.9-13.9,22.8-22.8
		C321.2,226.3,317.2,215.4,305.3,202.5z"/>
	<path fill="#A5BB27" d="M360.5,144.3c-21.2-24.2-43.1-33.3-65-27.2c-18.9,5.3-35.5,20.4-52.2,46.1c-14.4,21.9-24.2,46.9-31.8,74.1
		c-6.8,26.5-9.1,44.6-5.3,56.7c10.6,3.8,29.5,3.8,55.9,0c29.5-4.5,55.2-12.9,77.1-23.4c27.2-13.6,43.9-30.2,49.1-49.1
		C395.3,198,386.2,172.3,360.5,144.3z M286.5,256.2c-7.6,3.8-16.6,6.8-27.2,8.3c-9.8,1.5-15.9,1.5-19.7,0
		c-1.5-4.5-0.8-10.6,2.3-19.7c2.3-10.6,6-18.9,10.6-26.5c6-9.1,12.1-14.4,18.9-15.9c7.6-2.3,15.1,1.5,23.4,9.8
		c9.1,9.8,12.1,18.9,9.8,27.2C301.6,246.3,296.3,251.6,286.5,256.2z"/>
	<path fill="#343434" d="M363,386.1c-1.9-14.3-7.6-23.8-17.1-26.6c-7.6-2.9-18.1-1.9-30.5,2.9c-10.5,3.8-20.9,10.5-30.5,18.1
		c-8.6,7.6-14.3,13.3-16.2,19c2.9,3.8,9.5,8.6,20,13.3c11.4,5.7,22.8,9.5,34.3,11.4c13.3,1.9,23.8,0,29.5-5.7
		C361.1,413.7,365,402.3,363,386.1z"/>
	<path fill="#A5BB27" d="M449,368.8c-3-31.8-15.9-52.2-37.8-59.7c-18.1-6-40.8-3.8-69.6,7.6c-23.4,10.6-46.9,24.2-68.8,42.3
		c-21.2,17.4-33.3,31.8-36.3,43.1c6,9.8,21.9,20.4,45.4,31.8c26.5,13.6,52.2,21.9,76.4,24.9c30.2,4.5,52.2,0.8,68-12.1
		C446,432.3,452.8,406.6,449,368.8z M347.7,413.4c-5.3,4.5-13.6,6-23.4,4.5c-9.1-1.5-18.1-4.5-27.2-9.1c-8.3-3.8-13.6-7.6-15.9-10.6
		c1.5-4.5,6-9.8,12.9-15.1c7.6-6,15.9-11.3,24.2-14.4c10.6-3.8,18.1-4.5,24.2-2.3c7.6,2.3,12.1,9.8,13.6,21.2
		C357.5,399.1,354.5,408.1,347.7,413.4z"/>
</g>
</svg>
